<mxfile host="app.diagrams.net" modified="2021-08-10T02:49:26.305Z" agent="5.0 (Macintosh; Intel Mac OS X 10_15_7) AppleWebKit/537.36 (KHTML, like Gecko) Chrome/92.0.4515.131 Safari/537.36" etag="TNtyZ4saFR2AWeiL8r2u" version="14.9.5" type="github">
  <diagram id="C5RBs43oDa-KdzZeNtuy" name="Page-1">
    <mxGraphModel dx="2105" dy="852" grid="1" gridSize="13" guides="1" tooltips="1" connect="1" arrows="1" fold="1" page="1" pageScale="1" pageWidth="827" pageHeight="1169" math="0" shadow="0">
      <root>
        <mxCell id="WIyWlLk6GJQsqaUBKTNV-0" />
        <mxCell id="WIyWlLk6GJQsqaUBKTNV-1" parent="WIyWlLk6GJQsqaUBKTNV-0" />
        <mxCell id="zkfFHV4jXpPFQw0GAbJ--17" value="Scene/场景" style="swimlane;fontStyle=0;align=center;verticalAlign=top;childLayout=stackLayout;horizontal=1;startSize=26;horizontalStack=0;resizeParent=1;resizeLast=0;collapsible=1;marginBottom=0;rounded=0;shadow=0;strokeWidth=1;" parent="WIyWlLk6GJQsqaUBKTNV-1" vertex="1">
          <mxGeometry x="286" y="416" width="282" height="366" as="geometry">
            <mxRectangle x="550" y="140" width="160" height="26" as="alternateBounds" />
          </mxGeometry>
        </mxCell>
        <mxCell id="zkfFHV4jXpPFQw0GAbJ--18" value="canvas：HTMLCanvasElement" style="text;align=left;verticalAlign=top;spacingLeft=4;spacingRight=4;overflow=hidden;rotatable=0;points=[[0,0.5],[1,0.5]];portConstraint=eastwest;" parent="zkfFHV4jXpPFQw0GAbJ--17" vertex="1">
          <mxGeometry y="26" width="282" height="26" as="geometry" />
        </mxCell>
        <mxCell id="zkfFHV4jXpPFQw0GAbJ--19" value="context: CanvasRenderingContext2D" style="text;align=left;verticalAlign=top;spacingLeft=4;spacingRight=4;overflow=hidden;rotatable=0;points=[[0,0.5],[1,0.5]];portConstraint=eastwest;rounded=0;shadow=0;html=0;" parent="zkfFHV4jXpPFQw0GAbJ--17" vertex="1">
          <mxGeometry y="52" width="282" height="26" as="geometry" />
        </mxCell>
        <mxCell id="zkfFHV4jXpPFQw0GAbJ--21" value="controllers/控制器: Array&lt;Controller&gt;" style="text;align=left;verticalAlign=top;spacingLeft=4;spacingRight=4;overflow=hidden;rotatable=0;points=[[0,0.5],[1,0.5]];portConstraint=eastwest;rounded=0;shadow=0;html=0;" parent="zkfFHV4jXpPFQw0GAbJ--17" vertex="1">
          <mxGeometry y="78" width="282" height="26" as="geometry" />
        </mxCell>
        <mxCell id="7cYfv-VFj-JGhO8uupBY-39" value="chidren/组件: Array&lt;Component&gt;" style="text;align=left;verticalAlign=top;spacingLeft=4;spacingRight=4;overflow=hidden;rotatable=0;points=[[0,0.5],[1,0.5]];portConstraint=eastwest;rounded=0;shadow=0;html=0;" vertex="1" parent="zkfFHV4jXpPFQw0GAbJ--17">
          <mxGeometry y="104" width="282" height="26" as="geometry" />
        </mxCell>
        <mxCell id="7cYfv-VFj-JGhO8uupBY-1" value="store/数据: Store" style="text;align=left;verticalAlign=top;spacingLeft=4;spacingRight=4;overflow=hidden;rotatable=0;points=[[0,0.5],[1,0.5]];portConstraint=eastwest;rounded=0;shadow=0;html=0;" vertex="1" parent="zkfFHV4jXpPFQw0GAbJ--17">
          <mxGeometry y="130" width="282" height="26" as="geometry" />
        </mxCell>
        <mxCell id="zkfFHV4jXpPFQw0GAbJ--23" value="" style="line;html=1;strokeWidth=1;align=left;verticalAlign=middle;spacingTop=-1;spacingLeft=3;spacingRight=3;rotatable=0;labelPosition=right;points=[];portConstraint=eastwest;" parent="zkfFHV4jXpPFQw0GAbJ--17" vertex="1">
          <mxGeometry y="156" width="282" height="8" as="geometry" />
        </mxCell>
        <mxCell id="zkfFHV4jXpPFQw0GAbJ--24" value="constructor(initData): 初始化" style="text;align=left;verticalAlign=top;spacingLeft=4;spacingRight=4;overflow=hidden;rotatable=0;points=[[0,0.5],[1,0.5]];portConstraint=eastwest;" parent="zkfFHV4jXpPFQw0GAbJ--17" vertex="1">
          <mxGeometry y="164" width="282" height="26" as="geometry" />
        </mxCell>
        <mxCell id="zkfFHV4jXpPFQw0GAbJ--25" value="init(Canvas): 传入canvas对像、绑定事件 " style="text;align=left;verticalAlign=top;spacingLeft=4;spacingRight=4;overflow=hidden;rotatable=0;points=[[0,0.5],[1,0.5]];portConstraint=eastwest;" parent="zkfFHV4jXpPFQw0GAbJ--17" vertex="1">
          <mxGeometry y="190" width="282" height="26" as="geometry" />
        </mxCell>
        <mxCell id="7cYfv-VFj-JGhO8uupBY-8" value="render(): 渲染" style="text;align=left;verticalAlign=top;spacingLeft=4;spacingRight=4;overflow=hidden;rotatable=0;points=[[0,0.5],[1,0.5]];portConstraint=eastwest;" vertex="1" parent="zkfFHV4jXpPFQw0GAbJ--17">
          <mxGeometry y="216" width="282" height="26" as="geometry" />
        </mxCell>
        <mxCell id="7cYfv-VFj-JGhO8uupBY-11" value="unLoad()：解绑事件" style="text;align=left;verticalAlign=top;spacingLeft=4;spacingRight=4;overflow=hidden;rotatable=0;points=[[0,0.5],[1,0.5]];portConstraint=eastwest;" vertex="1" parent="zkfFHV4jXpPFQw0GAbJ--17">
          <mxGeometry y="242" width="282" height="31" as="geometry" />
        </mxCell>
        <mxCell id="7cYfv-VFj-JGhO8uupBY-71" value="Start()：初始" style="text;align=left;verticalAlign=top;spacingLeft=4;spacingRight=4;overflow=hidden;rotatable=0;points=[[0,0.5],[1,0.5]];portConstraint=eastwest;" vertex="1" parent="zkfFHV4jXpPFQw0GAbJ--17">
          <mxGeometry y="273" width="282" height="31" as="geometry" />
        </mxCell>
        <mxCell id="7cYfv-VFj-JGhO8uupBY-72" value="Update()：更新" style="text;align=left;verticalAlign=top;spacingLeft=4;spacingRight=4;overflow=hidden;rotatable=0;points=[[0,0.5],[1,0.5]];portConstraint=eastwest;" vertex="1" parent="zkfFHV4jXpPFQw0GAbJ--17">
          <mxGeometry y="304" width="282" height="31" as="geometry" />
        </mxCell>
        <mxCell id="7cYfv-VFj-JGhO8uupBY-73" value="End()：结束" style="text;align=left;verticalAlign=top;spacingLeft=4;spacingRight=4;overflow=hidden;rotatable=0;points=[[0,0.5],[1,0.5]];portConstraint=eastwest;" vertex="1" parent="zkfFHV4jXpPFQw0GAbJ--17">
          <mxGeometry y="335" width="282" height="31" as="geometry" />
        </mxCell>
        <mxCell id="7cYfv-VFj-JGhO8uupBY-27" value="Component/组件" style="swimlane;fontStyle=1;align=center;verticalAlign=top;childLayout=stackLayout;horizontal=1;startSize=26;horizontalStack=0;resizeParent=1;resizeParentMax=0;resizeLast=0;collapsible=1;marginBottom=0;fillColor=none;" vertex="1" parent="WIyWlLk6GJQsqaUBKTNV-1">
          <mxGeometry x="-377" y="416" width="247" height="580" as="geometry" />
        </mxCell>
        <mxCell id="7cYfv-VFj-JGhO8uupBY-28" value="_x: number" style="text;strokeColor=none;fillColor=none;align=left;verticalAlign=top;spacingLeft=4;spacingRight=4;overflow=hidden;rotatable=0;points=[[0,0.5],[1,0.5]];portConstraint=eastwest;" vertex="1" parent="7cYfv-VFj-JGhO8uupBY-27">
          <mxGeometry y="26" width="247" height="26" as="geometry" />
        </mxCell>
        <mxCell id="7cYfv-VFj-JGhO8uupBY-31" value="_y: number" style="text;strokeColor=none;fillColor=none;align=left;verticalAlign=top;spacingLeft=4;spacingRight=4;overflow=hidden;rotatable=0;points=[[0,0.5],[1,0.5]];portConstraint=eastwest;" vertex="1" parent="7cYfv-VFj-JGhO8uupBY-27">
          <mxGeometry y="52" width="247" height="26" as="geometry" />
        </mxCell>
        <mxCell id="7cYfv-VFj-JGhO8uupBY-32" value="_width: number " style="text;strokeColor=none;fillColor=none;align=left;verticalAlign=top;spacingLeft=4;spacingRight=4;overflow=hidden;rotatable=0;points=[[0,0.5],[1,0.5]];portConstraint=eastwest;" vertex="1" parent="7cYfv-VFj-JGhO8uupBY-27">
          <mxGeometry y="78" width="247" height="26" as="geometry" />
        </mxCell>
        <mxCell id="7cYfv-VFj-JGhO8uupBY-33" value="_height: number" style="text;strokeColor=none;fillColor=none;align=left;verticalAlign=top;spacingLeft=4;spacingRight=4;overflow=hidden;rotatable=0;points=[[0,0.5],[1,0.5]];portConstraint=eastwest;" vertex="1" parent="7cYfv-VFj-JGhO8uupBY-27">
          <mxGeometry y="104" width="247" height="26" as="geometry" />
        </mxCell>
        <mxCell id="7cYfv-VFj-JGhO8uupBY-57" value="_zIndex: number" style="text;strokeColor=none;fillColor=none;align=left;verticalAlign=top;spacingLeft=4;spacingRight=4;overflow=hidden;rotatable=0;points=[[0,0.5],[1,0.5]];portConstraint=eastwest;" vertex="1" parent="7cYfv-VFj-JGhO8uupBY-27">
          <mxGeometry y="130" width="247" height="26" as="geometry" />
        </mxCell>
        <mxCell id="7cYfv-VFj-JGhO8uupBY-56" value="_ontouchstart: func" style="text;strokeColor=none;fillColor=none;align=left;verticalAlign=top;spacingLeft=4;spacingRight=4;overflow=hidden;rotatable=0;points=[[0,0.5],[1,0.5]];portConstraint=eastwest;" vertex="1" parent="7cYfv-VFj-JGhO8uupBY-27">
          <mxGeometry y="156" width="247" height="26" as="geometry" />
        </mxCell>
        <mxCell id="7cYfv-VFj-JGhO8uupBY-55" value="_ontouchmove: func" style="text;strokeColor=none;fillColor=none;align=left;verticalAlign=top;spacingLeft=4;spacingRight=4;overflow=hidden;rotatable=0;points=[[0,0.5],[1,0.5]];portConstraint=eastwest;" vertex="1" parent="7cYfv-VFj-JGhO8uupBY-27">
          <mxGeometry y="182" width="247" height="26" as="geometry" />
        </mxCell>
        <mxCell id="7cYfv-VFj-JGhO8uupBY-60" value="_ontouchend: func" style="text;strokeColor=none;fillColor=none;align=left;verticalAlign=top;spacingLeft=4;spacingRight=4;overflow=hidden;rotatable=0;points=[[0,0.5],[1,0.5]];portConstraint=eastwest;" vertex="1" parent="7cYfv-VFj-JGhO8uupBY-27">
          <mxGeometry y="208" width="247" height="26" as="geometry" />
        </mxCell>
        <mxCell id="7cYfv-VFj-JGhO8uupBY-59" value="_onload: func" style="text;strokeColor=none;fillColor=none;align=left;verticalAlign=top;spacingLeft=4;spacingRight=4;overflow=hidden;rotatable=0;points=[[0,0.5],[1,0.5]];portConstraint=eastwest;" vertex="1" parent="7cYfv-VFj-JGhO8uupBY-27">
          <mxGeometry y="234" width="247" height="26" as="geometry" />
        </mxCell>
        <mxCell id="7cYfv-VFj-JGhO8uupBY-61" value="_onmouseover: func" style="text;strokeColor=none;fillColor=none;align=left;verticalAlign=top;spacingLeft=4;spacingRight=4;overflow=hidden;rotatable=0;points=[[0,0.5],[1,0.5]];portConstraint=eastwest;" vertex="1" parent="7cYfv-VFj-JGhO8uupBY-27">
          <mxGeometry y="260" width="247" height="26" as="geometry" />
        </mxCell>
        <mxCell id="7cYfv-VFj-JGhO8uupBY-34" value="_onmouseout: func" style="text;strokeColor=none;fillColor=none;align=left;verticalAlign=top;spacingLeft=4;spacingRight=4;overflow=hidden;rotatable=0;points=[[0,0.5],[1,0.5]];portConstraint=eastwest;" vertex="1" parent="7cYfv-VFj-JGhO8uupBY-27">
          <mxGeometry y="286" width="247" height="26" as="geometry" />
        </mxCell>
        <mxCell id="7cYfv-VFj-JGhO8uupBY-35" value="visible: boolean" style="text;strokeColor=none;fillColor=none;align=left;verticalAlign=top;spacingLeft=4;spacingRight=4;overflow=hidden;rotatable=0;points=[[0,0.5],[1,0.5]];portConstraint=eastwest;" vertex="1" parent="7cYfv-VFj-JGhO8uupBY-27">
          <mxGeometry y="312" width="247" height="26" as="geometry" />
        </mxCell>
        <mxCell id="7cYfv-VFj-JGhO8uupBY-36" value="loaded: boolean" style="text;strokeColor=none;fillColor=none;align=left;verticalAlign=top;spacingLeft=4;spacingRight=4;overflow=hidden;rotatable=0;points=[[0,0.5],[1,0.5]];portConstraint=eastwest;" vertex="1" parent="7cYfv-VFj-JGhO8uupBY-27">
          <mxGeometry y="338" width="247" height="26" as="geometry" />
        </mxCell>
        <mxCell id="7cYfv-VFj-JGhO8uupBY-44" value="touched: boolean" style="text;strokeColor=none;fillColor=none;align=left;verticalAlign=top;spacingLeft=4;spacingRight=4;overflow=hidden;rotatable=0;points=[[0,0.5],[1,0.5]];portConstraint=eastwest;" vertex="1" parent="7cYfv-VFj-JGhO8uupBY-27">
          <mxGeometry y="364" width="247" height="26" as="geometry" />
        </mxCell>
        <mxCell id="7cYfv-VFj-JGhO8uupBY-45" value="hovered: boolean" style="text;strokeColor=none;fillColor=none;align=left;verticalAlign=top;spacingLeft=4;spacingRight=4;overflow=hidden;rotatable=0;points=[[0,0.5],[1,0.5]];portConstraint=eastwest;" vertex="1" parent="7cYfv-VFj-JGhO8uupBY-27">
          <mxGeometry y="390" width="247" height="26" as="geometry" />
        </mxCell>
        <mxCell id="7cYfv-VFj-JGhO8uupBY-37" value="touchable: boolean" style="text;strokeColor=none;fillColor=none;align=left;verticalAlign=top;spacingLeft=4;spacingRight=4;overflow=hidden;rotatable=0;points=[[0,0.5],[1,0.5]];portConstraint=eastwest;" vertex="1" parent="7cYfv-VFj-JGhO8uupBY-27">
          <mxGeometry y="416" width="247" height="26" as="geometry" />
        </mxCell>
        <mxCell id="7cYfv-VFj-JGhO8uupBY-38" value="hoverable: boolean" style="text;strokeColor=none;fillColor=none;align=left;verticalAlign=top;spacingLeft=4;spacingRight=4;overflow=hidden;rotatable=0;points=[[0,0.5],[1,0.5]];portConstraint=eastwest;" vertex="1" parent="7cYfv-VFj-JGhO8uupBY-27">
          <mxGeometry y="442" width="247" height="26" as="geometry" />
        </mxCell>
        <mxCell id="7cYfv-VFj-JGhO8uupBY-46" value="eventEmitter/事件触发器: EventEmitter" style="text;strokeColor=none;fillColor=none;align=left;verticalAlign=top;spacingLeft=4;spacingRight=4;overflow=hidden;rotatable=0;points=[[0,0.5],[1,0.5]];portConstraint=eastwest;" vertex="1" parent="7cYfv-VFj-JGhO8uupBY-27">
          <mxGeometry y="468" width="247" height="26" as="geometry" />
        </mxCell>
        <mxCell id="7cYfv-VFj-JGhO8uupBY-29" value="" style="line;strokeWidth=1;fillColor=none;align=left;verticalAlign=middle;spacingTop=-1;spacingLeft=3;spacingRight=3;rotatable=0;labelPosition=right;points=[];portConstraint=eastwest;" vertex="1" parent="7cYfv-VFj-JGhO8uupBY-27">
          <mxGeometry y="494" width="247" height="8" as="geometry" />
        </mxCell>
        <mxCell id="7cYfv-VFj-JGhO8uupBY-30" value="Start(): 初始" style="text;strokeColor=none;fillColor=none;align=left;verticalAlign=top;spacingLeft=4;spacingRight=4;overflow=hidden;rotatable=0;points=[[0,0.5],[1,0.5]];portConstraint=eastwest;" vertex="1" parent="7cYfv-VFj-JGhO8uupBY-27">
          <mxGeometry y="502" width="247" height="26" as="geometry" />
        </mxCell>
        <mxCell id="7cYfv-VFj-JGhO8uupBY-40" value="Update():  更新" style="text;strokeColor=none;fillColor=none;align=left;verticalAlign=top;spacingLeft=4;spacingRight=4;overflow=hidden;rotatable=0;points=[[0,0.5],[1,0.5]];portConstraint=eastwest;" vertex="1" parent="7cYfv-VFj-JGhO8uupBY-27">
          <mxGeometry y="528" width="247" height="26" as="geometry" />
        </mxCell>
        <mxCell id="7cYfv-VFj-JGhO8uupBY-41" value="End():  结束" style="text;strokeColor=none;fillColor=none;align=left;verticalAlign=top;spacingLeft=4;spacingRight=4;overflow=hidden;rotatable=0;points=[[0,0.5],[1,0.5]];portConstraint=eastwest;" vertex="1" parent="7cYfv-VFj-JGhO8uupBY-27">
          <mxGeometry y="554" width="247" height="26" as="geometry" />
        </mxCell>
        <mxCell id="7cYfv-VFj-JGhO8uupBY-42" value="聚合" style="edgeStyle=orthogonalEdgeStyle;rounded=0;orthogonalLoop=1;jettySize=auto;html=1;exitX=1;exitY=0.5;exitDx=0;exitDy=0;entryX=0;entryY=0.5;entryDx=0;entryDy=0;startArrow=diamondThin;startFill=0;" edge="1" parent="WIyWlLk6GJQsqaUBKTNV-1" source="7cYfv-VFj-JGhO8uupBY-33" target="7cYfv-VFj-JGhO8uupBY-39">
          <mxGeometry relative="1" as="geometry" />
        </mxCell>
        <mxCell id="7cYfv-VFj-JGhO8uupBY-63" value="Controller/控制器" style="swimlane;fontStyle=1;align=center;verticalAlign=top;childLayout=stackLayout;horizontal=1;startSize=26;horizontalStack=0;resizeParent=1;resizeParentMax=0;resizeLast=0;collapsible=1;marginBottom=0;fillColor=none;" vertex="1" parent="WIyWlLk6GJQsqaUBKTNV-1">
          <mxGeometry x="884" y="468" width="234" height="164" as="geometry" />
        </mxCell>
        <mxCell id="7cYfv-VFj-JGhO8uupBY-64" value="eventEmitter/事件触发器: EventEmitter" style="text;strokeColor=none;fillColor=none;align=left;verticalAlign=top;spacingLeft=4;spacingRight=4;overflow=hidden;rotatable=0;points=[[0,0.5],[1,0.5]];portConstraint=eastwest;" vertex="1" parent="7cYfv-VFj-JGhO8uupBY-63">
          <mxGeometry y="26" width="234" height="26" as="geometry" />
        </mxCell>
        <mxCell id="7cYfv-VFj-JGhO8uupBY-67" value="store/数据: Store" style="text;strokeColor=none;fillColor=none;align=left;verticalAlign=top;spacingLeft=4;spacingRight=4;overflow=hidden;rotatable=0;points=[[0,0.5],[1,0.5]];portConstraint=eastwest;" vertex="1" parent="7cYfv-VFj-JGhO8uupBY-63">
          <mxGeometry y="52" width="234" height="26" as="geometry" />
        </mxCell>
        <mxCell id="7cYfv-VFj-JGhO8uupBY-65" value="" style="line;strokeWidth=1;fillColor=none;align=left;verticalAlign=middle;spacingTop=-1;spacingLeft=3;spacingRight=3;rotatable=0;labelPosition=right;points=[];portConstraint=eastwest;" vertex="1" parent="7cYfv-VFj-JGhO8uupBY-63">
          <mxGeometry y="78" width="234" height="8" as="geometry" />
        </mxCell>
        <mxCell id="7cYfv-VFj-JGhO8uupBY-66" value="Start(): 初始" style="text;strokeColor=none;fillColor=none;align=left;verticalAlign=top;spacingLeft=4;spacingRight=4;overflow=hidden;rotatable=0;points=[[0,0.5],[1,0.5]];portConstraint=eastwest;" vertex="1" parent="7cYfv-VFj-JGhO8uupBY-63">
          <mxGeometry y="86" width="234" height="26" as="geometry" />
        </mxCell>
        <mxCell id="7cYfv-VFj-JGhO8uupBY-69" value="Update(): 更新" style="text;strokeColor=none;fillColor=none;align=left;verticalAlign=top;spacingLeft=4;spacingRight=4;overflow=hidden;rotatable=0;points=[[0,0.5],[1,0.5]];portConstraint=eastwest;" vertex="1" parent="7cYfv-VFj-JGhO8uupBY-63">
          <mxGeometry y="112" width="234" height="26" as="geometry" />
        </mxCell>
        <mxCell id="7cYfv-VFj-JGhO8uupBY-70" value="End(): 结束" style="text;strokeColor=none;fillColor=none;align=left;verticalAlign=top;spacingLeft=4;spacingRight=4;overflow=hidden;rotatable=0;points=[[0,0.5],[1,0.5]];portConstraint=eastwest;" vertex="1" parent="7cYfv-VFj-JGhO8uupBY-63">
          <mxGeometry y="138" width="234" height="26" as="geometry" />
        </mxCell>
        <mxCell id="7cYfv-VFj-JGhO8uupBY-74" style="edgeStyle=orthogonalEdgeStyle;rounded=0;orthogonalLoop=1;jettySize=auto;html=1;exitX=0;exitY=0.5;exitDx=0;exitDy=0;startArrow=none;startFill=0;" edge="1" parent="WIyWlLk6GJQsqaUBKTNV-1" source="7cYfv-VFj-JGhO8uupBY-64" target="zkfFHV4jXpPFQw0GAbJ--21">
          <mxGeometry relative="1" as="geometry">
            <mxPoint x="572" y="507" as="targetPoint" />
            <Array as="points">
              <mxPoint x="689" y="507" />
            </Array>
          </mxGeometry>
        </mxCell>
        <mxCell id="7cYfv-VFj-JGhO8uupBY-75" value="Device/设备类" style="swimlane;fontStyle=0;childLayout=stackLayout;horizontal=1;startSize=26;fillColor=none;horizontalStack=0;resizeParent=1;resizeParentMax=0;resizeLast=0;collapsible=1;marginBottom=0;" vertex="1" parent="WIyWlLk6GJQsqaUBKTNV-1">
          <mxGeometry x="-130" y="1183" width="140" height="104" as="geometry" />
        </mxCell>
        <mxCell id="7cYfv-VFj-JGhO8uupBY-76" value="+ field: type" style="text;strokeColor=none;fillColor=none;align=left;verticalAlign=top;spacingLeft=4;spacingRight=4;overflow=hidden;rotatable=0;points=[[0,0.5],[1,0.5]];portConstraint=eastwest;" vertex="1" parent="7cYfv-VFj-JGhO8uupBY-75">
          <mxGeometry y="26" width="140" height="26" as="geometry" />
        </mxCell>
        <mxCell id="7cYfv-VFj-JGhO8uupBY-77" value="+ field: type" style="text;strokeColor=none;fillColor=none;align=left;verticalAlign=top;spacingLeft=4;spacingRight=4;overflow=hidden;rotatable=0;points=[[0,0.5],[1,0.5]];portConstraint=eastwest;" vertex="1" parent="7cYfv-VFj-JGhO8uupBY-75">
          <mxGeometry y="52" width="140" height="26" as="geometry" />
        </mxCell>
        <mxCell id="7cYfv-VFj-JGhO8uupBY-78" value="+ field: type" style="text;strokeColor=none;fillColor=none;align=left;verticalAlign=top;spacingLeft=4;spacingRight=4;overflow=hidden;rotatable=0;points=[[0,0.5],[1,0.5]];portConstraint=eastwest;" vertex="1" parent="7cYfv-VFj-JGhO8uupBY-75">
          <mxGeometry y="78" width="140" height="26" as="geometry" />
        </mxCell>
        <mxCell id="7cYfv-VFj-JGhO8uupBY-82" value="继承" style="endArrow=block;endSize=16;endFill=0;html=1;exitX=0.5;exitY=0;exitDx=0;exitDy=0;" edge="1" parent="WIyWlLk6GJQsqaUBKTNV-1" source="7cYfv-VFj-JGhO8uupBY-75" target="7cYfv-VFj-JGhO8uupBY-41">
          <mxGeometry width="160" relative="1" as="geometry">
            <mxPoint x="-65" y="1170" as="sourcePoint" />
            <mxPoint x="-74" y="1092" as="targetPoint" />
            <Array as="points">
              <mxPoint x="-60" y="1053" />
              <mxPoint x="-253" y="1053" />
            </Array>
          </mxGeometry>
        </mxCell>
      </root>
    </mxGraphModel>
  </diagram>
</mxfile>
